<svg width="220" height="150" version="1.1" viewBox="0 0 220 150" xmlns="http://www.w3.org/2000/svg">
 <g transform="translate(40.84541 -.1101985)">
  <g transform="matrix(2.811707 0 0 2.811707 29.21156 4.198916)" fill="#fdf2ed" stroke="#de6d2c" stroke-width=".462343">
   <circle cx="14.15262" cy="14.12131" r="13.97728" fill="#fdf2ed" stroke="#de6d2c" stroke-linecap="round" stroke-linejoin="round" stroke-width=".462343"/>
  </g>
 </g>
 <g transform="translate(42.49979 -3.163996)">
  <path d="m39.25661 48.90906c3.593881-3.55257 6.80817-1.331433 7.297171 1.921108 0.488999 3.252546-2.324837 5.192824-3.849784 5.476536-1.524946 0.283703-4.660446-0.376043-5.606153-3.1336-0.945705-2.757559 0.05825-7.424107 1.408713-10.65551 1.350466-3.231402 2.348215-5.646387 3.192426-7.83962 0.844211-2.193236 0.690998-6.570334-0.923789-6.613328-1.620872-0.04315-1.456525 6.082931-0.705753 8.53673 0.750774 2.453797 1.838937 12.62192 2.277545 19.98372 0.146798 2.789177 0.241697 5.889767-0.4923 7.651352" fill="none" stroke="#de6d2c" stroke-linecap="round" stroke-width="1.5"/>
  <ellipse transform="matrix(.9958314 -.09121274 -.2173885 .9760852 0 0)" cx="56.49146" cy="70.51146" rx="1.996469" ry="2.646994" fill="#de6d2c"/>
  <path d="m62.96064 61.71318-16.14756-13.96211s1.87805-2.693473 3.929204-3.789888c2.051153-1.096415 4.700792-1.762319 6.918148-3.735761 2.217359-1.973444 3.008564-3.376029 4.100205-6.124309 1.091639-2.748311 1.710241-5.862383 1.710241-5.862383" fill="none" stroke="#de6d2c" stroke-linecap="round" stroke-linejoin="round" stroke-width="1.5"/>
  <ellipse transform="matrix(.9440272 -.3298677 .00880439 .9999612 0 0)" cx="65.15884" cy="85.09768" rx="2.03987" ry="2.511924" fill="#de6d2c"/>
  <path d="m75.70175 28.91527s-0.289535-0.690141-2.195316-0.709737c-1.905773-0.01951-2.481814 3.475433-2.291274 5.897772 0.190543 2.422339 4.17272 22.87282 4.48851 25.67314 0.315793 2.800322-0.360227 5.724417-2.292632 5.724417-1.932379 0-2.248182-0.911875-2.248182-0.911875" fill="none" stroke="#de6d2c" stroke-linecap="round" stroke-width="1.5"/>
  <path d="m95.4513 29.27972-0.58113-1.019066-17.13728 14.53837 4.139037 4.035558-4.190775 3.725134 17.177 14.84879 0.61458-1.001313" fill="none" stroke="#de6d2c" stroke-linecap="round" stroke-linejoin="round" stroke-width="1.5"/>
 </g>
 <g fill="#de6d2c" stroke-width="1.3">
  <g transform="matrix(.965 0 0 1 -.2117777 2.470952)" aria-label="MusicScience37's">
   <path d="m2.969501 111.3612q-0.56 0-0.868-0.336t-0.308-0.896v-17.668q0-0.588 0.308-0.896 0.336-0.336 0.896-0.336 0.504 0 0.784 0.196 0.308 0.196 0.56 0.672l7.504 14.084h-0.868l7.504-14.084q0.252-0.476 0.532-0.672t0.784-0.196q0.56 0 0.868 0.336 0.308 0.308 0.308 0.896v17.668q0 0.56-0.308 0.896-0.28 0.336-0.868 0.336t-0.896-0.336q-0.28-0.336-0.28-0.896v-15.092h0.616l-6.72 12.572q-0.224 0.364-0.476 0.56-0.224 0.168-0.644 0.168-0.392 0-0.672-0.196-0.252-0.196-0.448-0.532l-6.804-12.6h0.672v15.12q0 0.56-0.308 0.896-0.28 0.336-0.868 0.336z"/>
   <path d="m29.7975 111.4172q-1.652 0-2.772-0.616-1.092-0.616-1.624-1.82t-0.532-3.024v-7.335996q0-0.644 0.308-0.952 0.336-0.336 0.952-0.336t0.952 0.336q0.336 0.308 0.336 0.952v7.335996q0 1.736 0.7 2.576 0.7 0.812 2.212 0.812 1.68 0 2.716-1.12 1.064-1.12 1.064-2.968v-6.635996q0-0.644 0.308-0.952 0.336-0.336 0.952-0.336t0.952 0.336q0.336 0.308 0.336 0.952v11.424q0 1.316-1.232 1.316-0.616 0-0.952-0.336-0.308-0.336-0.308-0.98v-2.436l0.364 0.476q-0.56 1.624-1.82 2.492-1.232 0.84-2.912 0.84zm16.15202 0q-1.26 0-2.548-0.28-1.26-0.308-2.38-1.036-0.308-0.196-0.448-0.476-0.112-0.308-0.084-0.588 0.056-0.308 0.252-0.532t0.476-0.252q0.308-0.056 0.644 0.14 1.092 0.616 2.1 0.868 1.036 0.252 2.044 0.252 1.54 0 2.324-0.56t0.784-1.484q0-0.784-0.532-1.204-0.504-0.448-1.596-0.672l-2.604-0.532q-1.736-0.392-2.632-1.288-0.868-0.924-0.868-2.352 0-1.26 0.672-2.183996 0.7-0.952 1.932-1.456t2.828-0.504q1.232 0 2.324 0.336 1.12 0.308 2.016 0.952 0.336 0.196 0.42 0.504 0.112 0.28 0.028 0.588-0.056 0.28-0.252 0.475996-0.196 0.196-0.504 0.252-0.308 0.028-0.672-0.168-0.812-0.559996-1.68-0.783996-0.84-0.252-1.68-0.252-1.512 0-2.296 0.588-0.756 0.587996-0.756 1.539996 0 0.728 0.448 1.204 0.476 0.476 1.484 0.7l2.604 0.532q1.82 0.392 2.744 1.26 0.924 0.84 0.924 2.296 0 1.904-1.512 3.024-1.484 1.092-4.004 1.092zm10.58-0.112q-0.588 0-0.924-0.364t-0.336-1.008v-11.172q0-0.672 0.336-1.008 0.336-0.364 0.924-0.364 0.616 0 0.952 0.364 0.336 0.336 0.336 1.008v11.172q0 0.644-0.336 1.008-0.308 0.364-0.952 0.364zm0-16.94q-0.756 0-1.204-0.392-0.42-0.42-0.42-1.092 0-0.728 0.42-1.092 0.448-0.392 1.204-0.392 0.812 0 1.204 0.392 0.42 0.364 0.42 1.092 0 0.672-0.42 1.092-0.392 0.392-1.204 0.392z"/>
   <path d="m68.31349 111.4172q-2.072 0-3.584-0.868-1.512-0.896-2.324-2.492-0.812-1.624-0.812-3.808 0-1.624 0.448-2.912 0.476-1.288 1.344-2.183996 0.868-0.924 2.1-1.4 1.26-0.476 2.828-0.476 0.98 0 2.072 0.308t2.016 1.008q0.308 0.224 0.392 0.532 0.084 0.28 0 0.588-0.056 0.307996-0.28 0.531996-0.196 0.196-0.532 0.224-0.308 0.028-0.672-0.196-0.672-0.503996-1.428-0.727996-0.728-0.224-1.4-0.224-1.036 0-1.848 0.336-0.784 0.336-1.344 0.979996-0.532 0.616-0.812 1.54-0.28 0.896-0.28 2.1 0 2.38 1.12 3.752 1.12 1.344 3.164 1.344 0.672 0 1.4-0.196 0.728-0.224 1.428-0.728 0.364-0.224 0.672-0.168 0.308 0.028 0.504 0.252 0.224 0.196 0.28 0.504 0.056 0.28-0.056 0.588-0.084 0.308-0.392 0.504-0.896 0.672-1.96 0.98t-2.044 0.308z"/>
   <path d="m83.7295 111.4172q-1.316 0-2.548-0.224-1.232-0.196-2.324-0.616t-1.96-1.036q-0.364-0.252-0.532-0.616-0.14-0.364-0.084-0.7 0.084-0.364 0.308-0.616 0.252-0.252 0.588-0.308t0.728 0.224q1.288 0.868 2.688 1.26 1.428 0.392 3.136 0.392 2.464 0 3.612-0.896 1.176-0.896 1.176-2.352 0-1.204-0.84-1.876-0.84-0.7-2.828-1.092l-2.968-0.616q-2.632-0.56-3.948-1.848-1.288-1.287996-1.288-3.443996 0-1.316 0.532-2.38 0.532-1.092 1.512-1.876t2.296-1.204q1.344-0.42 2.968-0.42 1.736 0 3.248 0.476 1.54 0.476 2.772 1.4 0.336 0.252 0.448 0.616 0.112 0.336 0.028 0.672-0.056 0.336-0.308 0.56-0.224 0.224-0.588 0.252-0.336 0.028-0.756-0.252-1.12-0.784-2.296-1.12-1.176-0.364-2.576-0.364-1.428 0-2.492 0.448-1.036 0.448-1.624 1.26-0.56 0.784-0.56 1.848 0 1.288 0.784 2.016t2.632 1.119996l2.94 0.588q2.8 0.588 4.144 1.82 1.372 1.204 1.372 3.248 0 1.288-0.532 2.324-0.504 1.036-1.456 1.792-0.952 0.728-2.324 1.148-1.372 0.392-3.08 0.392z"/>
   <path d="m100.6375 111.4172q-2.072004 0-3.584004-0.868-1.512-0.896-2.324-2.492-0.812-1.624-0.812-3.808 0-1.624 0.448-2.912 0.476-1.288 1.344-2.183996 0.868-0.924 2.1-1.4 1.26-0.476 2.828004-0.476 0.98 0 2.072 0.308t2.016 1.008q0.308 0.224 0.392 0.532 0.084 0.28 0 0.588-0.056 0.307996-0.28 0.531996-0.196 0.196-0.532 0.224-0.308 0.028-0.672-0.196-0.672-0.503996-1.428-0.727996-0.728-0.224-1.4-0.224-1.036004 0-1.848004 0.336-0.784 0.336-1.344 0.979996-0.532 0.616-0.812 1.54-0.28 0.896-0.28 2.1 0 2.38 1.12 3.752 1.12 1.344 3.164004 1.344 0.672 0 1.4-0.196 0.728-0.224 1.428-0.728 0.364-0.224 0.672-0.168 0.308 0.028 0.504 0.252 0.224 0.196 0.28 0.504 0.056 0.28-0.056 0.588-0.084 0.308-0.392 0.504-0.896 0.672-1.96 0.98t-2.044 0.308z"/>
   <path d="m110.0095 111.3052q-0.588 0-0.924-0.364t-0.336-1.008v-11.172q0-0.672 0.336-1.008 0.336-0.364 0.924-0.364 0.616 0 0.952 0.364 0.336 0.336 0.336 1.008v11.172q0 0.644-0.336 1.008-0.308 0.364-0.952 0.364zm0-16.94q-0.756 0-1.204-0.392-0.42-0.42-0.42-1.092 0-0.728 0.42-1.092 0.448-0.392 1.204-0.392 0.812 0 1.204 0.392 0.42 0.364 0.42 1.092 0 0.672-0.42 1.092-0.392 0.392-1.204 0.392zm12.17599 17.052q-2.212 0-3.808-0.84-1.568-0.868-2.436-2.436-0.868-1.596-0.868-3.752 0-2.128 0.84-3.724 0.868-1.595996 2.352-2.491996 1.512-0.896 3.444-0.896 1.372 0 2.464 0.476 1.12 0.448 1.904 1.316t1.176 2.127996q0.42 1.232 0.42 2.8 0 0.448-0.28 0.7-0.252 0.224-0.756 0.224h-9.576v-1.624h8.932l-0.476 0.392q0-1.456-0.448-2.464-0.42-1.036-1.26-1.567996-0.812-0.532-2.044-0.532-1.344 0-2.296 0.644-0.952 0.615996-1.456 1.763996-0.504 1.12-0.504 2.604v0.168q0 2.52 1.204 3.808t3.472 1.288q0.896 0 1.82-0.224 0.952-0.224 1.82-0.812 0.42-0.252 0.756-0.224 0.364 0 0.588 0.224 0.224 0.196 0.28 0.504 0.056 0.28-0.084 0.616t-0.532 0.588q-0.924 0.644-2.212 1.008-1.26 0.336-2.436 0.336z"/>
   <path d="m132.5975 111.3612q-0.588 0-0.924-0.336t-0.336-0.98v-11.424q0-0.644 0.336-0.952 0.336-0.336 0.924-0.336t0.896 0.336q0.336 0.308 0.336 0.952v2.295996l-0.308-0.42q0.588-1.595996 1.904-2.407996 1.344-0.812 3.052-0.812 1.652 0 2.716 0.588t1.596 1.792q0.532 1.203996 0.532 3.051996v7.336q0 0.644-0.336 0.98-0.308 0.336-0.924 0.336t-0.952-0.336-0.336-0.98v-7.196q0-1.82-0.7-2.66-0.7-0.839996-2.24-0.839996-1.792 0-2.884 1.119996-1.064 1.092-1.064 2.968v6.608q0 1.316-1.288 1.316z"/>
   <path d="m153.2615 111.4172q-2.072 0-3.584-0.868-1.512-0.896-2.324-2.492-0.812-1.624-0.812-3.808 0-1.624 0.448-2.912 0.476-1.288 1.344-2.183996 0.868-0.924 2.1-1.4 1.26-0.476 2.828-0.476 0.98 0 2.072 0.308t2.016 1.008q0.308 0.224 0.392 0.532 0.084 0.28 0 0.588-0.056 0.307996-0.28 0.531996-0.196 0.196-0.532 0.224-0.308 0.028-0.672-0.196-0.672-0.503996-1.428-0.727996-0.728-0.224-1.4-0.224-1.036 0-1.848 0.336-0.784 0.336-1.344 0.979996-0.532 0.616-0.812 1.54-0.28 0.896-0.28 2.1 0 2.38 1.12 3.752 1.12 1.344 3.164 1.344 0.672 0 1.4-0.196 0.728-0.224 1.428-0.728 0.364-0.224 0.672-0.168 0.308 0.028 0.504 0.252 0.224 0.196 0.28 0.504 0.056 0.28-0.056 0.588-0.084 0.308-0.392 0.504-0.896 0.672-1.96 0.98t-2.044 0.308z"/>
   <path d="m167.6735 111.4172q-2.212 0-3.808-0.84-1.568-0.868-2.436-2.436-0.868-1.596-0.868-3.752 0-2.128 0.84-3.724 0.868-1.595996 2.352-2.491996 1.512-0.896 3.444-0.896 1.372 0 2.464 0.476 1.12 0.448 1.904 1.316t1.176 2.127996q0.42 1.232 0.42 2.8 0 0.448-0.28 0.7-0.252 0.224-0.756 0.224h-9.576v-1.624h8.932l-0.476 0.392q0-1.456-0.448-2.464-0.42-1.036-1.26-1.567996-0.812-0.532-2.044-0.532-1.344 0-2.296 0.644-0.952 0.615996-1.456 1.763996-0.504 1.12-0.504 2.604v0.168q0 2.52 1.204 3.808t3.472 1.288q0.896 0 1.82-0.224 0.952-0.224 1.82-0.812 0.42-0.252 0.756-0.224 0.364 0 0.588 0.224 0.224 0.196 0.28 0.504 0.056 0.28-0.084 0.616t-0.532 0.588q-0.924 0.644-2.212 1.008-1.26 0.336-2.436 0.336z"/>
   <path d="m182.9295 111.4172q-1.624 0-3.248-0.448t-2.828-1.344q-0.392-0.28-0.532-0.644t-0.084-0.672q0.084-0.336 0.336-0.56t0.616-0.252q0.364-0.056 0.784 0.196 1.204 0.784 2.38 1.148 1.204 0.336 2.492 0.336 1.372 0 2.324-0.392 0.952-0.42 1.428-1.204 0.504-0.812 0.504-1.932 0-1.68-1.092-2.52-1.092-0.868-3.192-0.868h-1.96q-0.588 0-0.896-0.28-0.308-0.308-0.308-0.812 0-0.532 0.308-0.812t0.896-0.28h1.736q1.232 0 2.1-0.419996 0.868-0.448 1.344-1.232 0.504-0.784 0.504-1.904 0-1.512-0.98-2.296-0.98-0.812-2.828-0.812-1.204 0-2.268 0.364-1.064 0.336-2.156 1.148-0.364 0.252-0.728 0.252-0.364-0.028-0.616-0.252-0.224-0.224-0.308-0.532-0.084-0.336 0.028-0.7t0.504-0.644q1.148-0.896 2.632-1.372 1.512-0.504 3.108-0.504 1.932 0 3.304 0.616 1.4 0.616 2.128 1.764 0.728 1.12 0.728 2.716 0 1.204-0.448 2.212-0.448 0.98-1.288 1.679996-0.812 0.672-1.988 0.952v-0.308q2.044 0.364 3.164 1.708 1.148 1.316 1.148 3.304 0 1.708-0.84 2.996-0.812 1.26-2.324 1.932t-3.584 0.672zm13.384-0.056q-0.448 0-0.784-0.224-0.308-0.224-0.392-0.588-0.056-0.392 0.196-0.896l8.876-17.052v1.036h-9.856q-0.56 0-0.868-0.28-0.308-0.308-0.308-0.812 0-0.532 0.308-0.812 0.308-0.308 0.868-0.308h11.06q0.56 0 0.896 0.308 0.364 0.28 0.364 0.812 0 0.448-0.112 0.784-0.112 0.308-0.336 0.728l-8.456 16.436q-0.224 0.448-0.588 0.672-0.336 0.196-0.868 0.196zm15.26002-11.9q-0.364 0-0.644-0.252-0.252-0.28-0.308-0.728l-0.448-5.74q-0.056-0.644 0.336-1.064 0.42-0.448 1.036-0.448 0.42 0 0.728 0.196 0.336 0.196 0.504 0.532 0.196 0.336 0.14 0.784l-0.42 5.74q-0.028 0.448-0.308 0.728-0.252 0.252-0.616 0.252zm9.884 11.956q-1.26 0-2.548-0.28-1.26-0.308-2.38-1.036-0.308-0.196-0.448-0.476-0.112-0.308-0.084-0.588 0.056-0.308 0.252-0.532t0.476-0.252q0.308-0.056 0.644 0.14 1.092 0.616 2.1 0.868 1.036 0.252 2.044 0.252 1.54 0 2.324-0.56t0.784-1.484q0-0.784-0.532-1.204-0.504-0.448-1.596-0.672l-2.604-0.532q-1.736-0.392-2.632-1.288-0.868-0.924-0.868-2.352 0-1.26 0.672-2.183996 0.7-0.952 1.932-1.456t2.828-0.504q1.232 0 2.324 0.336 1.12 0.308 2.016 0.952 0.336 0.196 0.42 0.504 0.112 0.28 0.028 0.588-0.056 0.28-0.252 0.475996-0.196 0.196-0.504 0.252-0.308 0.028-0.672-0.168-0.812-0.559996-1.68-0.783996-0.84-0.252-1.68-0.252-1.512 0-2.296 0.588-0.756 0.587996-0.756 1.539996 0 0.728 0.448 1.204 0.476 0.476 1.484 0.7l2.604 0.532q1.82 0.392 2.744 1.26 0.924 0.84 0.924 2.296 0 1.904-1.512 3.024-1.484 1.092-4.004 1.092z"/>
  </g>
  <g transform="matrix(.965 0 0 1 -1.242468 8.511056)" aria-label="TIL">
   <path d="m102.0857 136.868q-0.644 0-0.98-0.336-0.336-0.364-0.336-1.008v-16.38h-6.132q-0.532 0-0.84-0.28-0.308-0.308-0.308-0.84t0.308-0.812 0.84-0.28h14.868q0.56 0 0.84 0.28 0.308 0.28 0.308 0.812t-0.308 0.84q-0.28 0.28-0.84 0.28h-6.132v16.38q0 0.644-0.336 1.008-0.308 0.336-0.952 0.336z"/>
   <path d="m115.7377 136.868q-0.616 0-0.952-0.336-0.336-0.364-0.336-1.008v-17.444q0-0.672 0.336-1.008t0.952-0.336q0.644 0 0.98 0.336t0.336 1.008v17.444q0 0.644-0.336 1.008-0.308 0.336-0.98 0.336z"/>
   <path d="m122.6017 136.672q-0.616 0-0.98-0.364-0.336-0.364-0.336-0.98v-17.192q0-0.644 0.336-0.98t0.952-0.336q0.644 0 0.98 0.336t0.336 0.98v16.296h8.904q0.588 0 0.868 0.28 0.308 0.28 0.308 0.812 0 0.56-0.308 0.868-0.28 0.28-0.868 0.28z"/>
  </g>
 </g>
</svg>
