<?xml version="1.0" encoding="UTF-8" standalone="no"?>
<!-- Created with Inkscape (http://www.inkscape.org/) -->

<svg
   width="220"
   height="150"
   viewBox="0 0 220 150"
   version="1.1"
   id="svg8"
   inkscape:version="1.4.3 (0d15f75, 2025-12-25)"
   sodipodi:docname="logo.svg"
   inkscape:export-filename="..\outputs\KIcon.png"
   inkscape:export-xdpi="1228.8"
   inkscape:export-ydpi="1228.8"
   xmlns:inkscape="http://www.inkscape.org/namespaces/inkscape"
   xmlns:sodipodi="http://sodipodi.sourceforge.net/DTD/sodipodi-0.dtd"
   xmlns="http://www.w3.org/2000/svg"
   xmlns:svg="http://www.w3.org/2000/svg"
   xmlns:rdf="http://www.w3.org/1999/02/22-rdf-syntax-ns#"
   xmlns:cc="http://creativecommons.org/ns#"
   xmlns:dc="http://purl.org/dc/elements/1.1/">
  <defs
     id="defs2" />
  <sodipodi:namedview
     id="base"
     pagecolor="#fefdfd"
     bordercolor="#666666"
     borderopacity="1.0"
     inkscape:pageopacity="0"
     inkscape:pageshadow="2"
     inkscape:zoom="3.6423212"
     inkscape:cx="83.73781"
     inkscape:cy="62.46017"
     inkscape:document-units="px"
     inkscape:current-layer="layer6"
     showgrid="false"
     inkscape:window-width="1920"
     inkscape:window-height="1009"
     inkscape:window-x="-8"
     inkscape:window-y="-8"
     inkscape:window-maximized="1"
     fit-margin-top="0"
     fit-margin-left="0"
     fit-margin-right="0"
     fit-margin-bottom="0"
     units="pt"
     inkscape:pagecheckerboard="false"
     inkscape:showpageshadow="true"
     inkscape:deskcolor="#d1d1d1"
     inkscape:antialias-rendering="true"
     borderlayer="true" />
  <metadata
     id="metadata5">
    <rdf:RDF>
      <cc:Work
         rdf:about="">
        <dc:format>image/svg+xml</dc:format>
        <dc:type
           rdf:resource="http://purl.org/dc/dcmitype/StillImage" />
      </cc:Work>
    </rdf:RDF>
  </metadata>
  <g
     inkscape:groupmode="layer"
     id="layer5"
     inkscape:label="back"
     transform="translate(40.845406,-0.11019846)"
     style="display:inline">
    <g
       id="g1"
       style="display:inline;fill:#fdf2ed;fill-opacity:1;stroke:#d66d33;stroke-width:0.462343;stroke-dasharray:none;stroke-opacity:1"
       transform="matrix(2.8117071,0,0,2.8117071,29.211563,4.1989162)">
      <circle
         style="fill:#fdf2ed;fill-opacity:1;stroke:#d66d33;stroke-width:0.462343;stroke-linecap:round;stroke-linejoin:round;stroke-miterlimit:4;stroke-dasharray:none;stroke-opacity:1"
         id="path845"
         cx="14.152623"
         cy="14.121309"
         r="13.977279" />
    </g>
  </g>
  <g
     inkscape:groupmode="layer"
     id="layer2"
     inkscape:label="icon"
     style="display:inline"
     transform="translate(42.499791,-3.1639962)">
    <path
       style="display:inline;fill:none;stroke:#d66d33;stroke-width:1.5;stroke-linecap:round;stroke-linejoin:miter;stroke-miterlimit:4;stroke-dasharray:none;stroke-opacity:1"
       d="m 39.256612,48.909055 c 3.593881,-3.55257 6.80817,-1.331433 7.297171,1.921108 0.488999,3.252546 -2.324837,5.192824 -3.849784,5.476536 -1.524946,0.283703 -4.660446,-0.376043 -5.606153,-3.1336 -0.945705,-2.757559 0.05825,-7.424107 1.408713,-10.655512 1.350466,-3.231402 2.348215,-5.646387 3.192426,-7.83962 0.844211,-2.193236 0.690998,-6.570334 -0.923789,-6.613328 -1.620872,-0.04315 -1.456525,6.082931 -0.705753,8.53673 0.750774,2.453797 1.838937,12.621925 2.277545,19.983723 0.146798,2.789177 0.241697,5.889767 -0.4923,7.651352"
       id="path3727"
       inkscape:connector-curvature="0"
       sodipodi:nodetypes="czzzzzszcc" />
    <ellipse
       style="display:inline;fill:#d66d33;fill-opacity:1;stroke:none;stroke-width:1.33443;stroke-miterlimit:4;stroke-dasharray:none"
       id="path3729"
       cx="56.491463"
       cy="70.511459"
       rx="1.9964693"
       ry="2.6469936"
       transform="matrix(0.99583143,-0.09121274,-0.21738847,0.97608517,0,0)" />
    <path
       style="display:inline;fill:none;stroke:#d66d33;stroke-width:1.5;stroke-linecap:round;stroke-linejoin:round;stroke-miterlimit:4;stroke-dasharray:none;stroke-opacity:1"
       d="M 62.960635,61.713177 46.813071,47.751065 c 0,0 1.87805,-2.693473 3.929204,-3.789888 2.051153,-1.096415 4.700792,-1.762319 6.918148,-3.735761 2.217359,-1.973444 3.008564,-3.376029 4.100205,-6.124309 1.091639,-2.748311 1.710241,-5.862383 1.710241,-5.862383"
       id="path4537"
       inkscape:connector-curvature="0"
       sodipodi:nodetypes="cczzzc" />
    <ellipse
       style="display:inline;fill:#d66d33;fill-opacity:1;stroke:none;stroke-width:1.33263;stroke-miterlimit:4;stroke-dasharray:none"
       id="path3729-3"
       cx="65.158836"
       cy="85.097679"
       rx="2.0398705"
       ry="2.5119243"
       transform="matrix(0.94402716,-0.32986773,0.00880439,0.99996124,0,0)"
       inkscape:transform-center-x="0.52218363"
       inkscape:transform-center-y="-0.23345817" />
    <path
       style="display:inline;fill:none;stroke:#d66d33;stroke-width:1.5;stroke-linecap:round;stroke-linejoin:miter;stroke-miterlimit:4;stroke-dasharray:none;stroke-opacity:1"
       d="m 75.701753,28.915269 c 0,0 -0.289535,-0.690141 -2.195316,-0.709737 -1.905773,-0.01951 -2.481814,3.475433 -2.291274,5.897772 0.190543,2.422339 4.17272,22.87282 4.48851,25.673142 0.315793,2.800322 -0.360227,5.724417 -2.292632,5.724417 -1.932379,0 -2.248182,-0.911875 -2.248182,-0.911875"
       id="path4585"
       inkscape:connector-curvature="0"
       sodipodi:nodetypes="czzzzc" />
    <path
       style="fill:none;stroke:#d66d33;stroke-width:1.5;stroke-linecap:round;stroke-linejoin:round;stroke-miterlimit:4;stroke-dasharray:none;stroke-opacity:1"
       d="M 95.4513,29.279725 94.87017,28.260659 77.732893,42.79903 81.87193,46.834588 77.681155,50.559722 94.85815,65.408516 95.47273,64.407203"
       id="path4653"
       inkscape:connector-curvature="0"
       sodipodi:nodetypes="ccccccc" />
  </g>
  <g
     inkscape:groupmode="layer"
     id="layer6"
     inkscape:label="title">
    <g
       id="text1"
       style="font-weight:500;font-size:28px;line-height:0;font-family:Nunito;-inkscape-font-specification:'Nunito Medium';letter-spacing:0px;fill:#d66d33;stroke-width:1.3;fill-opacity:1"
       aria-label="MusicScience37's"
       transform="matrix(0.965,0,0,1,-0.21177769,2.4709518)">
      <path
         style="letter-spacing:-0.5px;fill:#d66d33;fill-opacity:1"
         d="m 2.9695007,111.36115 q -0.56,0 -0.868,-0.336 -0.308,-0.336 -0.308,-0.896 V 92.461154 q 0,-0.588 0.308,-0.896 0.336,-0.336 0.896,-0.336 0.504,0 0.784,0.196 0.308,0.196 0.56,0.672 l 7.5040003,14.083996 h -0.868 l 7.504,-14.083996 q 0.252,-0.476 0.532,-0.672 0.28,-0.196 0.784,-0.196 0.56,0 0.868,0.336 0.308,0.308 0.308,0.896 v 17.667996 q 0,0.56 -0.308,0.896 -0.28,0.336 -0.868,0.336 -0.588,0 -0.896,-0.336 -0.28,-0.336 -0.28,-0.896 V 95.037154 h 0.616 l -6.72,12.571996 q -0.224,0.364 -0.476,0.56 -0.224,0.168 -0.644,0.168 -0.392,0 -0.672,-0.196 -0.252,-0.196 -0.448,-0.532 L 3.4735007,95.009154 h 0.672 v 15.119996 q 0,0.56 -0.308,0.896 -0.28,0.336 -0.868,0.336 z"
         id="path8" />
      <path
         style="letter-spacing:0.5px;fill:#d66d33;fill-opacity:1"
         d="m 29.797495,111.41715 q -1.652,0 -2.772,-0.616 -1.092,-0.616 -1.624,-1.82 -0.532,-1.204 -0.532,-3.024 v -7.335996 q 0,-0.644 0.308,-0.952 0.336,-0.336 0.952,-0.336 0.616,0 0.952,0.336 0.336,0.308 0.336,0.952 v 7.335996 q 0,1.736 0.7,2.576 0.7,0.812 2.212,0.812 1.68,0 2.716,-1.12 1.064,-1.12 1.064,-2.968 v -6.635996 q 0,-0.644 0.308,-0.952 0.336,-0.336 0.952,-0.336 0.616,0 0.952,0.336 0.336,0.308 0.336,0.952 v 11.423996 q 0,1.316 -1.232,1.316 -0.616,0 -0.952,-0.336 -0.308,-0.336 -0.308,-0.98 v -2.436 l 0.364,0.476 q -0.56,1.624 -1.82,2.492 -1.232,0.84 -2.912,0.84 z m 16.152015,0 q -1.26,0 -2.548,-0.28 -1.26,-0.308 -2.38,-1.036 -0.308,-0.196 -0.448,-0.476 -0.112,-0.308 -0.084,-0.588 0.056,-0.308 0.252,-0.532 0.196,-0.224 0.476,-0.252 0.308,-0.056 0.644,0.14 1.092,0.616 2.1,0.868 1.036,0.252 2.044,0.252 1.54,0 2.324,-0.56 0.784,-0.56 0.784,-1.484 0,-0.784 -0.532,-1.204 -0.504,-0.448 -1.596,-0.672 l -2.604,-0.532 q -1.736,-0.392 -2.632,-1.288 -0.868,-0.924 -0.868,-2.352 0,-1.26 0.672,-2.183996 0.7,-0.952 1.932,-1.456 1.232,-0.504 2.828,-0.504 1.232,0 2.324,0.336 1.12,0.308 2.016,0.952 0.336,0.196 0.42,0.504 0.112,0.28 0.028,0.588 -0.056,0.28 -0.252,0.475996 -0.196,0.196 -0.504,0.252 -0.308,0.028 -0.672,-0.168 -0.812,-0.559996 -1.68,-0.783996 -0.84,-0.252 -1.68,-0.252 -1.512,0 -2.296,0.588 -0.756,0.587996 -0.756,1.539996 0,0.728 0.448,1.204 0.476,0.476 1.484,0.7 l 2.604,0.532 q 1.82,0.392 2.744,1.26 0.924,0.84 0.924,2.296 0,1.904 -1.512,3.024 -1.484,1.092 -4.004,1.092 z m 10.579995,-0.112 q -0.588,0 -0.924,-0.364 -0.336,-0.364 -0.336,-1.008 V 98.761154 q 0,-0.672 0.336,-1.008 0.336,-0.364 0.924,-0.364 0.616,0 0.952,0.364 0.336,0.336 0.336,1.008 v 11.171996 q 0,0.644 -0.336,1.008 -0.308,0.364 -0.952,0.364 z m 0,-16.939996 q -0.756,0 -1.204,-0.392 -0.42,-0.42 -0.42,-1.092 0,-0.728 0.42,-1.092 0.448,-0.392 1.204,-0.392 0.812,0 1.204,0.392 0.42,0.364 0.42,1.092 0,0.672 -0.42,1.092 -0.392,0.392 -1.204,0.392 z"
         id="path9" />
      <path
         style="letter-spacing:1.5px;fill:#d66d33;fill-opacity:1"
         d="m 68.313491,111.41715 q -2.072,0 -3.584,-0.868 -1.512,-0.896 -2.324,-2.492 -0.812,-1.624 -0.812,-3.808 0,-1.624 0.448,-2.912 0.476,-1.288 1.344,-2.183996 0.868,-0.924 2.1,-1.4 1.26,-0.476 2.828,-0.476 0.98,0 2.072,0.308 1.092,0.308 2.016,1.008 0.308,0.224 0.392,0.532 0.084,0.28 0,0.588 -0.056,0.307996 -0.28,0.531996 -0.196,0.196 -0.532,0.224 -0.308,0.028 -0.672,-0.196 -0.672,-0.503996 -1.428,-0.727996 -0.728,-0.224 -1.4,-0.224 -1.036,0 -1.848,0.336 -0.784,0.336 -1.344,0.979996 -0.532,0.616 -0.812,1.54 -0.28,0.896 -0.28,2.1 0,2.38 1.12,3.752 1.12,1.344 3.164,1.344 0.672,0 1.4,-0.196 0.728,-0.224 1.428,-0.728 0.364,-0.224 0.672,-0.168 0.308,0.028 0.504,0.252 0.224,0.196 0.28,0.504 0.056,0.28 -0.056,0.588 -0.084,0.308 -0.392,0.504 -0.896,0.672 -1.96,0.98 -1.064,0.308 -2.044,0.308 z"
         id="path10" />
      <path
         style="letter-spacing:0.5px;fill:#d66d33;fill-opacity:1"
         d="m 83.729495,111.41715 q -1.316,0 -2.548,-0.224 -1.232,-0.196 -2.324,-0.616 -1.092,-0.42 -1.96,-1.036 -0.364,-0.252 -0.532,-0.616 -0.14,-0.364 -0.084,-0.7 0.084,-0.364 0.308,-0.616 0.252,-0.252 0.588,-0.308 0.336,-0.056 0.728,0.224 1.288,0.868 2.688,1.26 1.428,0.392 3.136,0.392 2.464,0 3.612,-0.896 1.176,-0.896 1.176,-2.352 0,-1.204 -0.84,-1.876 -0.84,-0.7 -2.828,-1.092 l -2.968,-0.616 q -2.632,-0.56 -3.948,-1.848 -1.288,-1.287996 -1.288,-3.443996 0,-1.316 0.532,-2.38 0.532,-1.092 1.512,-1.876 0.98,-0.784 2.296,-1.204 1.344,-0.42 2.968,-0.42 1.736,0 3.248,0.476 1.54,0.476 2.772,1.4 0.336,0.252 0.448,0.616 0.112,0.336 0.028,0.672 -0.056,0.336 -0.308,0.56 -0.224,0.224 -0.588,0.252 -0.336,0.028 -0.756,-0.252 -1.12,-0.784 -2.296,-1.12 -1.176,-0.364 -2.576,-0.364 -1.428,0 -2.492,0.448 -1.036,0.448 -1.624,1.26 -0.56,0.784 -0.56,1.848 0,1.288 0.784,2.016 0.784,0.728 2.632,1.119996 l 2.94,0.588 q 2.8,0.588 4.144,1.82 1.372,1.204 1.372,3.248 0,1.288 -0.532,2.324 -0.504,1.036 -1.456,1.792 -0.952,0.728 -2.324,1.148 -1.372,0.392 -3.08,0.392 z"
         id="path11" />
      <path
         style="letter-spacing:1px;fill:#d66d33;fill-opacity:1"
         d="m 100.6375,111.41715 q -2.072004,0 -3.584004,-0.868 -1.512,-0.896 -2.324,-2.492 -0.812,-1.624 -0.812,-3.808 0,-1.624 0.448,-2.912 0.476,-1.288 1.344,-2.183996 0.868,-0.924 2.1,-1.4 1.26,-0.476 2.828004,-0.476 0.98,0 2.072,0.308 1.092,0.308 2.016,1.008 0.308,0.224 0.392,0.532 0.084,0.28 0,0.588 -0.056,0.307996 -0.28,0.531996 -0.196,0.196 -0.532,0.224 -0.308,0.028 -0.672,-0.196 -0.672,-0.503996 -1.428,-0.727996 -0.728,-0.224 -1.4,-0.224 -1.036004,0 -1.848004,0.336 -0.784,0.336 -1.344,0.979996 -0.532,0.616 -0.812,1.54 -0.28,0.896 -0.28,2.1 0,2.38 1.12,3.752 1.12,1.344 3.164004,1.344 0.672,0 1.4,-0.196 0.728,-0.224 1.428,-0.728 0.364,-0.224 0.672,-0.168 0.308,0.028 0.504,0.252 0.224,0.196 0.28,0.504 0.056,0.28 -0.056,0.588 -0.084,0.308 -0.392,0.504 -0.896,0.672 -1.96,0.98 -1.064,0.308 -2.044,0.308 z"
         id="path12" />
      <path
         style="letter-spacing:0.5px;fill:#d66d33;fill-opacity:1"
         d="m 110.0095,111.30515 q -0.588,0 -0.924,-0.364 -0.336,-0.364 -0.336,-1.008 V 98.761154 q 0,-0.672 0.336,-1.008 0.336,-0.364 0.924,-0.364 0.616,0 0.952,0.364 0.336,0.336 0.336,1.008 v 11.171996 q 0,0.644 -0.336,1.008 -0.308,0.364 -0.952,0.364 z m 0,-16.939996 q -0.756,0 -1.204,-0.392 -0.42,-0.42 -0.42,-1.092 0,-0.728 0.42,-1.092 0.448,-0.392 1.204,-0.392 0.812,0 1.204,0.392 0.42,0.364 0.42,1.092 0,0.672 -0.42,1.092 -0.392,0.392 -1.204,0.392 z m 12.17599,17.051996 q -2.212,0 -3.808,-0.84 -1.568,-0.868 -2.436,-2.436 -0.868,-1.596 -0.868,-3.752 0,-2.128 0.84,-3.724 0.868,-1.595996 2.352,-2.491996 1.512,-0.896 3.444,-0.896 1.372,0 2.464,0.476 1.12,0.448 1.904,1.316 0.784,0.868 1.176,2.127996 0.42,1.232 0.42,2.8 0,0.448 -0.28,0.7 -0.252,0.224 -0.756,0.224 h -9.576 v -1.624 h 8.932 l -0.476,0.392 q 0,-1.456 -0.448,-2.464 -0.42,-1.036 -1.26,-1.567996 -0.812,-0.532 -2.044,-0.532 -1.344,0 -2.296,0.644 -0.952,0.615996 -1.456,1.763996 -0.504,1.12 -0.504,2.604 v 0.168 q 0,2.52 1.204,3.808 1.204,1.288 3.472,1.288 0.896,0 1.82,-0.224 0.952,-0.224 1.82,-0.812 0.42,-0.252 0.756,-0.224 0.364,0 0.588,0.224 0.224,0.196 0.28,0.504 0.056,0.28 -0.084,0.616 -0.14,0.336 -0.532,0.588 -0.924,0.644 -2.212,1.008 -1.26,0.336 -2.436,0.336 z"
         id="path13" />
      <path
         d="m 132.59751,111.36115 q -0.588,0 -0.924,-0.336 -0.336,-0.336 -0.336,-0.98 V 98.621154 q 0,-0.644 0.336,-0.952 0.336,-0.336 0.924,-0.336 0.588,0 0.896,0.336 0.336,0.308 0.336,0.952 v 2.295996 l -0.308,-0.42 q 0.588,-1.595996 1.904,-2.407996 1.344,-0.812 3.052,-0.812 1.652,0 2.716,0.588 1.064,0.588 1.596,1.792 0.532,1.203996 0.532,3.051996 v 7.336 q 0,0.644 -0.336,0.98 -0.308,0.336 -0.924,0.336 -0.616,0 -0.952,-0.336 -0.336,-0.336 -0.336,-0.98 v -7.196 q 0,-1.82 -0.7,-2.66 -0.7,-0.839996 -2.24,-0.839996 -1.792,0 -2.884,1.119996 -1.064,1.092 -1.064,2.968 v 6.608 q 0,1.316 -1.288,1.316 z"
         id="path14"
         style="fill:#d66d33;fill-opacity:1" />
      <path
         style="letter-spacing:1px;fill:#d66d33;fill-opacity:1"
         d="m 153.26151,111.41715 q -2.072,0 -3.584,-0.868 -1.512,-0.896 -2.324,-2.492 -0.812,-1.624 -0.812,-3.808 0,-1.624 0.448,-2.912 0.476,-1.288 1.344,-2.183996 0.868,-0.924 2.1,-1.4 1.26,-0.476 2.828,-0.476 0.98,0 2.072,0.308 1.092,0.308 2.016,1.008 0.308,0.224 0.392,0.532 0.084,0.28 0,0.588 -0.056,0.307996 -0.28,0.531996 -0.196,0.196 -0.532,0.224 -0.308,0.028 -0.672,-0.196 -0.672,-0.503996 -1.428,-0.727996 -0.728,-0.224 -1.4,-0.224 -1.036,0 -1.848,0.336 -0.784,0.336 -1.344,0.979996 -0.532,0.616 -0.812,1.54 -0.28,0.896 -0.28,2.1 0,2.38 1.12,3.752 1.12,1.344 3.164,1.344 0.672,0 1.4,-0.196 0.728,-0.224 1.428,-0.728 0.364,-0.224 0.672,-0.168 0.308,0.028 0.504,0.252 0.224,0.196 0.28,0.504 0.056,0.28 -0.056,0.588 -0.084,0.308 -0.392,0.504 -0.896,0.672 -1.96,0.98 -1.064,0.308 -2.044,0.308 z"
         id="path15" />
      <path
         style="letter-spacing:0.5px;fill:#d66d33;fill-opacity:1"
         d="m 167.67352,111.41715 q -2.212,0 -3.808,-0.84 -1.568,-0.868 -2.436,-2.436 -0.868,-1.596 -0.868,-3.752 0,-2.128 0.84,-3.724 0.868,-1.595996 2.352,-2.491996 1.512,-0.896 3.444,-0.896 1.372,0 2.464,0.476 1.12,0.448 1.904,1.316 0.784,0.868 1.176,2.127996 0.42,1.232 0.42,2.8 0,0.448 -0.28,0.7 -0.252,0.224 -0.756,0.224 h -9.576 v -1.624 h 8.932 l -0.476,0.392 q 0,-1.456 -0.448,-2.464 -0.42,-1.036 -1.26,-1.567996 -0.812,-0.532 -2.044,-0.532 -1.344,0 -2.296,0.644 -0.952,0.615996 -1.456,1.763996 -0.504,1.12 -0.504,2.604 v 0.168 q 0,2.52 1.204,3.808 1.204,1.288 3.472,1.288 0.896,0 1.82,-0.224 0.952,-0.224 1.82,-0.812 0.42,-0.252 0.756,-0.224 0.364,0 0.588,0.224 0.224,0.196 0.28,0.504 0.056,0.28 -0.084,0.616 -0.14,0.336 -0.532,0.588 -0.924,0.644 -2.212,1.008 -1.26,0.336 -2.436,0.336 z"
         id="path16" />
      <path
         d="m 182.92953,111.41715 q -1.624,0 -3.248,-0.448 -1.624,-0.448 -2.828,-1.344 -0.392,-0.28 -0.532,-0.644 -0.14,-0.364 -0.084,-0.672 0.084,-0.336 0.336,-0.56 0.252,-0.224 0.616,-0.252 0.364,-0.056 0.784,0.196 1.204,0.784 2.38,1.148 1.204,0.336 2.492,0.336 1.372,0 2.324,-0.392 0.952,-0.42 1.428,-1.204 0.504,-0.812 0.504,-1.932 0,-1.68 -1.092,-2.52 -1.092,-0.868 -3.192,-0.868 h -1.96 q -0.588,0 -0.896,-0.28 -0.308,-0.308 -0.308,-0.812 0,-0.532 0.308,-0.812 0.308,-0.28 0.896,-0.28 h 1.736 q 1.232,0 2.1,-0.419996 0.868,-0.448 1.344,-1.232 0.504,-0.784 0.504,-1.904 0,-1.512 -0.98,-2.296 -0.98,-0.812 -2.828,-0.812 -1.204,0 -2.268,0.364 -1.064,0.336 -2.156,1.148 -0.364,0.252 -0.728,0.252 -0.364,-0.028 -0.616,-0.252 -0.224,-0.224 -0.308,-0.532 -0.084,-0.336 0.028,-0.7 0.112,-0.364 0.504,-0.644 1.148,-0.896 2.632,-1.372 1.512,-0.504 3.108,-0.504 1.932,0 3.304,0.616 1.4,0.616 2.128,1.764 0.728,1.12 0.728,2.716 0,1.204 -0.448,2.212 -0.448,0.98 -1.288,1.679996 -0.812,0.672 -1.988,0.952 v -0.308 q 2.044,0.364 3.164,1.708 1.148,1.316 1.148,3.304 0,1.708 -0.84,2.996 -0.812,1.26 -2.324,1.932 -1.512,0.672 -3.584,0.672 z m 13.384,-0.056 q -0.448,0 -0.784,-0.224 -0.308,-0.224 -0.392,-0.588 -0.056,-0.392 0.196,-0.896 l 8.876,-17.051996 v 1.036 h -9.856 q -0.56,0 -0.868,-0.28 -0.308,-0.308 -0.308,-0.812 0,-0.532 0.308,-0.812 0.308,-0.308 0.868,-0.308 h 11.06 q 0.56,0 0.896,0.308 0.364,0.28 0.364,0.812 0,0.448 -0.112,0.784 -0.112,0.308 -0.336,0.728 l -8.456,16.435996 q -0.224,0.448 -0.588,0.672 -0.336,0.196 -0.868,0.196 z m 15.26002,-11.899996 q -0.364,0 -0.644,-0.252 -0.252,-0.28 -0.308,-0.728 l -0.448,-5.74 q -0.056,-0.644 0.336,-1.064 0.42,-0.448 1.036,-0.448 0.42,0 0.728,0.196 0.336,0.196 0.504,0.532 0.196,0.336 0.14,0.784 l -0.42,5.74 q -0.028,0.448 -0.308,0.728 -0.252,0.252 -0.616,0.252 z m 9.884,11.955996 q -1.26,0 -2.548,-0.28 -1.26,-0.308 -2.38,-1.036 -0.308,-0.196 -0.448,-0.476 -0.112,-0.308 -0.084,-0.588 0.056,-0.308 0.252,-0.532 0.196,-0.224 0.476,-0.252 0.308,-0.056 0.644,0.14 1.092,0.616 2.1,0.868 1.036,0.252 2.044,0.252 1.54,0 2.324,-0.56 0.784,-0.56 0.784,-1.484 0,-0.784 -0.532,-1.204 -0.504,-0.448 -1.596,-0.672 l -2.604,-0.532 q -1.736,-0.392 -2.632,-1.288 -0.868,-0.924 -0.868,-2.352 0,-1.26 0.672,-2.183996 0.7,-0.952 1.932,-1.456 1.232,-0.504 2.828,-0.504 1.232,0 2.324,0.336 1.12,0.308 2.016,0.952 0.336,0.196 0.42,0.504 0.112,0.28 0.028,0.588 -0.056,0.28 -0.252,0.475996 -0.196,0.196 -0.504,0.252 -0.308,0.028 -0.672,-0.168 -0.812,-0.559996 -1.68,-0.783996 -0.84,-0.252 -1.68,-0.252 -1.512,0 -2.296,0.588 -0.756,0.587996 -0.756,1.539996 0,0.728 0.448,1.204 0.476,0.476 1.484,0.7 l 2.604,0.532 q 1.82,0.392 2.744,1.26 0.924,0.84 0.924,2.296 0,1.904 -1.512,3.024 -1.484,1.092 -4.004,1.092 z"
         id="path17"
         style="fill:#d66d33;fill-opacity:1" />
    </g>
    <g
       id="text2"
       style="font-weight:300;font-size:28px;line-height:0;font-family:Nunito;-inkscape-font-specification:'Nunito Light';letter-spacing:0px;fill:#d66d33;stroke-width:1.3;fill-opacity:1"
       aria-label="TIL"
       transform="matrix(0.965,0,0,1,-1.2424684,8.5110562)">
      <path
         style="font-weight:500;-inkscape-font-specification:'Nunito Medium';letter-spacing:1.5px;fill:#d66d33;fill-opacity:1"
         d="m 102.0857,136.86795 q -0.644,0 -0.98,-0.336 -0.336,-0.364 -0.336,-1.008 v -16.38 h -6.132 q -0.532,0 -0.84,-0.28 -0.308,-0.308 -0.308,-0.84 0,-0.532 0.308,-0.812 0.308,-0.28 0.84,-0.28 h 14.868 q 0.56,0 0.84,0.28 0.308,0.28 0.308,0.812 0,0.532 -0.308,0.84 -0.28,0.28 -0.84,0.28 h -6.132 v 16.38 q 0,0.644 -0.336,1.008 -0.308,0.336 -0.952,0.336 z"
         id="path18" />
      <path
         style="font-weight:500;-inkscape-font-specification:'Nunito Medium';letter-spacing:-0.5px;fill:#d66d33;fill-opacity:1"
         d="m 115.73771,136.86795 q -0.616,0 -0.952,-0.336 -0.336,-0.364 -0.336,-1.008 v -17.444 q 0,-0.672 0.336,-1.008 0.336,-0.336 0.952,-0.336 0.644,0 0.98,0.336 0.336,0.336 0.336,1.008 v 17.444 q 0,0.644 -0.336,1.008 -0.308,0.336 -0.98,0.336 z"
         id="path19" />
      <path
         style="font-weight:500;-inkscape-font-specification:'Nunito Medium';fill:#d66d33;fill-opacity:1"
         d="m 122.60169,136.67195 q -0.616,0 -0.98,-0.364 -0.336,-0.364 -0.336,-0.98 v -17.192 q 0,-0.644 0.336,-0.98 0.336,-0.336 0.952,-0.336 0.644,0 0.98,0.336 0.336,0.336 0.336,0.98 v 16.296 h 8.904 q 0.588,0 0.868,0.28 0.308,0.28 0.308,0.812 0,0.56 -0.308,0.868 -0.28,0.28 -0.868,0.28 z"
         id="path20" />
    </g>
  </g>
</svg>
